<?xml version="1.0" encoding="UTF-8"?>
<svg version="1.1" xmlns="http://www.w3.org/2000/svg" width="596" height="141">
<path d="M0 0 C196.68 0 393.36 0 596 0 C596 46.53 596 93.06 596 141 C399.32 141 202.64 141 0 141 C0 94.47 0 47.94 0 0 Z " fill="#F4F2F1" transform="translate(0,0)"/>
<path d="M0 0 C1.18146103 -0.00145523 2.36292206 -0.00291046 3.58018494 -0.00440979 C6.07911647 -0.00275194 8.57805832 0.00879636 11.0769043 0.02954102 C14.8648728 0.05830917 18.65142397 0.0501826 22.43945312 0.03710938 C24.87630878 0.04335328 27.31316006 0.05174928 29.75 0.0625 C30.86713882 0.05956436 31.98427765 0.05662872 33.13526917 0.05360413 C43.94846782 0.18050766 54.38776161 2.07774319 64.02734375 7.12109375 C64.70023437 7.46664307 65.373125 7.81219238 66.06640625 8.16821289 C72.1664688 11.4341173 77.05272642 15.50159227 81.83984375 20.49609375 C82.53335938 21.15867187 83.226875 21.82125 83.94140625 22.50390625 C91.66816746 30.34999967 96.62149967 41.04460262 99.83984375 51.49609375 C100.24074219 50.49191406 100.64164062 49.48773438 101.0546875 48.453125 C109.03894095 29.02493411 120.69806685 13.34928741 140.49609375 4.84765625 C158.47458009 -2.15747469 178.57944798 -1.62003155 196.35546875 6.00390625 C203.89670197 9.77452286 209.93328592 14.51837257 215.83984375 20.49609375 C216.88591797 21.50929688 216.88591797 21.50929688 217.953125 22.54296875 C232.13981484 37.19795709 235.34122599 54.37970458 235.140625 74.10546875 C234.58262848 90.42436958 226.46157852 105.36961808 215.65234375 117.24609375 C207.26593568 125.05011237 196.60348969 130.79948807 185.83984375 134.49609375 C185.14246094 134.74101562 184.44507813 134.9859375 183.7265625 135.23828125 C167.06405864 139.96202021 148.08587289 136.0705628 133.21777344 127.90551758 C116.30401085 117.93863965 105.75151202 101.97696324 99.83984375 83.49609375 C99.63230469 84.21152344 99.42476563 84.92695312 99.2109375 85.6640625 C93.01377991 105.70758894 82.05985484 119.55049485 63.83984375 129.49609375 C53.64731449 134.50639729 44.15753724 136.80874876 32.8359375 136.796875 C31.45185448 136.80330269 31.45185448 136.80330269 30.03981018 136.80986023 C28.10280167 136.8155656 26.16577176 136.81613204 24.22875977 136.81176758 C21.28169057 136.80859842 18.33561808 136.83214621 15.38867188 136.85742188 C13.496095 136.8596945 11.60351546 136.86039853 9.7109375 136.859375 C8.83988876 136.86858475 7.96884003 136.87779449 7.07139587 136.88728333 C-1.49929729 136.82305985 -7.88094498 134.63259568 -14.16015625 128.49609375 C-19.41379279 121.63717938 -20.45734861 115.60814041 -20.46313477 107.23364258 C-20.4715741 106.32074966 -20.48001343 105.40785675 -20.4887085 104.46730042 C-20.51441113 101.46256975 -20.52660786 98.45793716 -20.5390625 95.453125 C-20.55524243 93.36137621 -20.57242295 91.26963495 -20.59056091 89.17790222 C-20.63618844 83.68001783 -20.67102758 78.18212333 -20.70275879 72.68414307 C-20.75469438 63.87341388 -20.81973192 55.06279504 -20.89097404 46.25220299 C-20.91382399 43.17276875 -20.93008176 40.0933486 -20.94569397 37.01387024 C-20.95909817 35.13269901 -20.97271275 33.25152926 -20.98657227 31.37036133 C-20.98918564 30.511604 -20.99179901 29.65284668 -20.99449158 28.76806641 C-21.02376779 25.43077044 -21.09757332 22.68384253 -22.16015625 19.49609375 C-22.69872558 14.86086589 -22.61193644 11.41703029 -20.53515625 7.18359375 C-14.22406553 0.04209636 -9.2292772 -0.09164742 0 0 Z " fill="#FE5604" transform="translate(25.16015625,1.50390625)"/>
<path d="M0 0 C1.64742188 -0.03577148 1.64742188 -0.03577148 3.328125 -0.07226562 C12.55140262 -0.055677 17.39228734 2.44547988 24.00390625 8.61328125 C25.07368027 9.69208359 26.13479842 10.77953192 27.1875 11.875 C27.74977295 12.44895508 28.3120459 13.02291016 28.89135742 13.61425781 C32.96274675 17.79820111 36.84546104 22.11385606 40.625 26.5625 C42.10056486 28.23235632 43.5797965 29.898979 45.0625 31.5625 C45.74183594 32.325625 46.42117188 33.08875 47.12109375 33.875 C47.86552734 34.7103125 47.86552734 34.7103125 48.625 35.5625 C56.95222043 27.29508007 64.72307512 19.01350971 71.18823242 9.19555664 C74.54077364 4.23128533 77.81314822 1.80209077 83.625 0.5625 C102.0637244 -0.86840297 102.0637244 -0.86840297 109.70703125 4.72265625 C115.69132673 10.46319224 118.61984868 17.61751408 118.88569641 25.87435913 C118.90047869 27.50000049 118.90450884 29.12576351 118.8996582 30.75146484 C118.90476913 31.64511246 118.90988007 32.53876007 118.91514587 33.45948792 C118.92898342 36.39754029 118.92808943 39.33535652 118.92578125 42.2734375 C118.92967151 44.32695604 118.93400687 46.38047377 118.93876648 48.43399048 C118.94621625 52.73271292 118.94594651 57.03135322 118.94067383 61.33007812 C118.93488234 66.82315648 118.95180866 72.31589732 118.9750185 77.80891991 C118.98979174 82.04871569 118.99062263 86.28843087 118.98750877 90.52824783 C118.98802023 92.55272718 118.99322473 94.57721126 119.00332069 96.6016655 C119.01573683 99.43957841 119.00886237 102.2768426 118.99731445 105.11474609 C119.00495819 105.94100998 119.01260193 106.76727386 119.02047729 107.61857605 C118.93744346 116.90852988 116.30170562 123.89307721 109.85546875 130.609375 C104.08166515 135.66524505 98.01745865 137.33441079 90.39453125 137.00390625 C82.54247107 135.75244955 77.06589628 131.65316464 72 125.72265625 C68.68729506 120.51832149 68.34509219 115.34061003 68.4296875 109.3203125 C68.4325174 108.55194061 68.43534729 107.78356873 68.43826294 106.99191284 C68.44938689 104.55694479 68.4744764 102.12235538 68.5 99.6875 C68.51003989 98.02865118 68.51916397 96.36979654 68.52734375 94.7109375 C68.54930063 90.66131421 68.58377594 86.61197113 68.625 82.5625 C67.965 82.5625 67.305 82.5625 66.625 82.5625 C66.23441406 83.45582031 66.23441406 83.45582031 65.8359375 84.3671875 C64.54648412 86.70484169 63.28960378 87.98634575 61.25 89.6875 C60.66476562 90.18507813 60.07953125 90.68265625 59.4765625 91.1953125 C54.65978737 94.752003 50.51142286 95.3665998 44.625 94.5625 C40.49227481 92.53830807 37.64936093 89.637189 34.44140625 86.40625 C33.7254126 85.68630859 33.00941895 84.96636719 32.27172852 84.22460938 C31.4565979 83.40186523 31.4565979 83.40186523 30.625 82.5625 C30.62089111 83.60591553 30.61678223 84.64933105 30.61254883 85.72436523 C30.59061051 89.633056 30.53617194 93.54076097 30.47241211 97.44897461 C30.44935921 99.13344807 30.43486649 100.81806307 30.42944336 102.50268555 C30.35645064 121.45271958 30.35645064 121.45271958 22.91625977 129.3840332 C17.48529869 134.64468252 11.59691111 136.6800701 4.125 137 C-3.318695 136.78349364 -9.00106588 133.63788222 -14.375 128.5625 C-19.58529 121.71469029 -20.67213816 115.75238297 -20.67797852 107.40771484 C-20.68641785 106.50618179 -20.69485718 105.60464874 -20.70355225 104.67579651 C-20.72925471 101.7083379 -20.74145245 98.74097863 -20.75390625 95.7734375 C-20.77008757 93.70650451 -20.78726823 91.63957912 -20.80540466 89.57266235 C-20.85103281 84.13927729 -20.88586922 78.70588196 -20.91760254 73.2723999 C-20.96953308 64.56861804 -21.03464325 55.86494802 -21.10581779 47.16130447 C-21.12864115 44.12124879 -21.14491702 41.08120731 -21.16053772 38.04110718 C-21.17394456 36.18023522 -21.18755938 34.31936475 -21.20141602 32.45849609 C-21.20402939 31.61268478 -21.20664276 30.76687347 -21.20933533 29.89543152 C-21.24135614 26.27794468 -21.44032657 23.04748312 -22.375 19.5625 C-22.89081629 14.91169742 -22.83570307 11.50162548 -20.75 7.25 C-14.41991119 0.08700476 -9.2760428 -0.09189553 0 0 Z " fill="#FE5604" transform="translate(415.375,1.4375)"/>
<path d="M0 0 C0.83877686 -0.00966797 1.67755371 -0.01933594 2.54174805 -0.02929688 C14.82398613 0.05158862 23.18583623 0.49887594 32.67578125 8.97265625 C38.57462803 16.16225273 37.95637767 23.29297604 37.7734375 32.23828125 C37.75990234 33.49447266 37.74636719 34.75066406 37.73242188 36.04492188 C37.69722638 39.13039396 37.64342453 42.21564398 37.5859375 45.30078125 C44.5159375 45.30078125 51.4459375 45.30078125 58.5859375 45.30078125 C58.4209375 41.98015625 58.2559375 38.65953125 58.0859375 35.23828125 C57.95253557 32.20709289 57.82827917 29.175699 57.70605469 26.14404297 C57.63195624 24.39007856 57.55077814 22.63637676 57.45800781 20.88330078 C56.80086623 8.38918574 56.80086623 8.38918574 59.8359375 4.48828125 C65.33314159 0.11550527 69.37356172 -0.05549997 76.2109375 -0.01171875 C77.56300293 -0.00325928 77.56300293 -0.00325928 78.94238281 0.00537109 C88.30680839 0.1765269 95.1405066 1.79014066 102.796875 7.3125 C108.19185099 13.3082266 109.1760603 19.50815727 109.11938477 27.33764648 C109.13230812 28.79537979 109.13230812 28.79537979 109.14549255 30.28256226 C109.16807943 33.47510895 109.16142671 36.66677263 109.15234375 39.859375 C109.15758262 42.09082803 109.16386006 44.32227885 109.17112732 46.5537262 C109.1815182 51.22317957 109.17698881 55.89232794 109.16235352 60.56176758 C109.14516998 66.53146912 109.16866349 72.50020776 109.20384312 78.4698019 C109.22585391 83.07593608 109.2243666 87.68184118 109.2160778 92.28801155 C109.21526027 94.48833332 109.22208556 96.68867224 109.23684883 98.88894463 C109.25436184 101.97139727 109.23969506 105.05213624 109.21704102 108.13452148 C109.23457932 109.48376961 109.23457932 109.48376961 109.25247192 110.86027527 C109.1441329 118.14317546 106.84180288 123.76997759 101.8760004 129.15511227 C96.80409864 133.96783049 91.12441777 136.3846099 84.1484375 136.67578125 C76.74333184 136.36989048 70.54648386 134.1149484 65.08984375 129.05078125 C60.79110168 124.04860866 58.44855049 117.96963751 58.48828125 111.4140625 C58.49077881 110.56884033 58.49327637 109.72361816 58.49584961 108.8527832 C58.50495361 107.78374756 58.51405762 106.71471191 58.5234375 105.61328125 C58.5440625 102.21015625 58.5646875 98.80703125 58.5859375 95.30078125 C51.6559375 95.30078125 44.7259375 95.30078125 37.5859375 95.30078125 C37.74284359 101.80722891 37.74284359 101.80722891 37.94628906 108.31225586 C38.04109335 116.19095054 36.02041406 121.64656695 31.68359375 128.15625 C26.53858037 133.41623575 19.30181067 136.63324613 11.9609375 136.98828125 C4.48150366 136.51339656 -1.83516655 133.42332603 -6.8515625 127.86328125 C-11.74530544 121.80088327 -12.85691427 116.49991476 -12.83056641 108.93066406 C-12.84344444 107.5442849 -12.84344444 107.5442849 -12.85658264 106.12989807 C-12.88159179 103.08782268 -12.88601641 100.04607493 -12.890625 97.00390625 C-12.90493738 94.88733933 -12.92069482 92.77078174 -12.93783569 90.65423584 C-12.97965111 85.091836 -13.00467558 79.52949396 -13.02532959 73.96697998 C-13.06117817 65.04928801 -13.12202724 56.13173841 -13.18381882 47.21419525 C-13.20294734 44.0953729 -13.21464831 40.97658872 -13.22525024 37.85772705 C-13.23545768 35.95625728 -13.2458152 34.05478831 -13.25634766 32.15332031 C-13.25738998 31.28161697 -13.25843231 30.40991364 -13.25950623 29.51179504 C-13.16861916 25.27158815 -13.16861916 25.27158815 -14.4140625 21.30078125 C-14.99643254 16.44278308 -15.54899378 11.45604163 -13.21484375 7.0234375 C-9.49796729 2.59501793 -5.90668381 0.06759521 0 0 Z " fill="#FE5604" transform="translate(278.4140625,1.69921875)"/>
<path d="M0 0 C1.66497354 1.16051141 3.31323345 2.34566731 4.9375 3.5625 C5.57945312 4.02269531 6.22140625 4.48289062 6.8828125 4.95703125 C15.12511327 11.36976301 20.97769052 21.02295899 24.9375 30.5625 C25.2571875 31.32046875 25.576875 32.0784375 25.90625 32.859375 C31.00999645 47.69804525 29.17659595 65.79927955 22.4296875 79.66015625 C14.32058091 94.5771407 2.6952941 104.46918868 -13.0625 110.5625 C-13.89007813 110.88347656 -14.71765625 111.20445312 -15.5703125 111.53515625 C-30.840547 116.55518747 -46.68615943 113.92518915 -60.9296875 107.2109375 C-76.53677846 98.50791793 -87.00349534 84.62192892 -92.375 67.8125 C-96.48914737 52.3426369 -94.2647698 35.96008411 -86.51831055 21.9921875 C-77.58677158 6.96294598 -64.12007852 -3.10575768 -47.23364258 -7.96362305 C-31.24902907 -11.45244963 -13.84422871 -8.43017986 0 0 Z " fill="#FE5604" transform="translate(225.0625,17.4375)"/>
<path d="M0 0 C6.95012998 3.76798235 12.32340114 9.39487462 14.62794113 17.06555653 C15.35084494 20.65247862 15.1953498 24.30800493 15.20019531 27.95385742 C15.20764267 29.29367172 15.20764267 29.29367172 15.21524048 30.66055298 C15.22984151 33.61485568 15.23666151 36.56910464 15.2421875 39.5234375 C15.24794167 41.58124289 15.25369937 43.63904827 15.25946045 45.69685364 C15.26996529 50.01348113 15.27581101 54.33009004 15.27929688 58.64672852 C15.2847734 64.16341152 15.30878571 69.6798467 15.33726883 75.19645214 C15.35594512 79.44910893 15.36110352 83.70170669 15.36263275 87.95440102 C15.36564971 89.98726058 15.37364576 92.02011934 15.38681793 94.05293846 C15.40397902 96.90551651 15.40197343 99.75749791 15.39550781 102.61010742 C15.40932999 103.85657295 15.40932999 103.85657295 15.4234314 105.1282196 C15.35774157 114.4359808 12.72837599 121.42290988 6.26953125 128.15234375 C0.49572765 133.2082138 -5.56847885 134.87737954 -13.19140625 134.546875 C-20.98360278 133.30495933 -26.46625314 129.26138797 -31.48828125 123.36328125 C-35.80788093 116.74065893 -36.42160204 111.24761861 -36.47265625 103.49194336 C-36.49087936 102.44717331 -36.50910248 101.40240326 -36.52787781 100.32597351 C-36.58337227 96.88661084 -36.6170631 93.44747411 -36.6484375 90.0078125 C-36.67799714 87.61079738 -36.70811604 85.2137891 -36.73876953 82.81678772 C-36.79910664 77.79937602 -36.84776921 72.78200645 -36.88916016 67.7644043 C-36.94382457 61.33568644 -37.03501303 54.9080634 -37.13587952 48.47992611 C-37.20820278 43.53267996 -37.25737919 38.58540274 -37.29995728 33.63781929 C-37.32386355 31.26746747 -37.35585247 28.89718281 -37.39608765 26.52705193 C-37.44960602 23.21426962 -37.47101918 19.90275427 -37.484375 16.58959961 C-37.50698898 15.61228882 -37.52960297 14.63497803 -37.55290222 13.62805176 C-37.53913023 9.15905379 -37.43608534 6.08836969 -34.55551147 2.53497314 C-26.56524822 -4.94694099 -9.81060116 -3.69197535 0 0 Z " fill="#FC5604" transform="translate(577.9609375,3.89453125)"/>
<path d="M0 0 C1.18146103 -0.00145523 2.36292206 -0.00291046 3.58018494 -0.00440979 C6.07911647 -0.00275194 8.57805832 0.00879636 11.0769043 0.02954102 C14.8648728 0.05830917 18.65142397 0.0501826 22.43945312 0.03710938 C24.87630878 0.04335328 27.31316006 0.05174928 29.75 0.0625 C30.86713882 0.05956436 31.98427765 0.05662872 33.13526917 0.05360413 C43.94846782 0.18050766 54.38776161 2.07774319 64.02734375 7.12109375 C64.70023437 7.46664307 65.373125 7.81219238 66.06640625 8.16821289 C72.1664688 11.4341173 77.05272642 15.50159227 81.83984375 20.49609375 C82.53335938 21.15867187 83.226875 21.82125 83.94140625 22.50390625 C91.66816746 30.34999967 96.62149967 41.04460262 99.83984375 51.49609375 C100.24074219 50.49191406 100.64164062 49.48773438 101.0546875 48.453125 C109.03894095 29.02493411 120.69806685 13.34928741 140.49609375 4.84765625 C158.47458009 -2.15747469 178.57944798 -1.62003155 196.35546875 6.00390625 C203.89670197 9.77452286 209.93328592 14.51837257 215.83984375 20.49609375 C216.88591797 21.50929688 216.88591797 21.50929688 217.953125 22.54296875 C232.13981484 37.19795709 235.34122599 54.37970458 235.140625 74.10546875 C234.58262848 90.42436958 226.46157852 105.36961808 215.65234375 117.24609375 C207.26593568 125.05011237 196.60348969 130.79948807 185.83984375 134.49609375 C185.14246094 134.74101562 184.44507813 134.9859375 183.7265625 135.23828125 C167.06405864 139.96202021 148.08587289 136.0705628 133.21777344 127.90551758 C116.30401085 117.93863965 105.75151202 101.97696324 99.83984375 83.49609375 C99.63230469 84.21152344 99.42476563 84.92695312 99.2109375 85.6640625 C93.01377991 105.70758894 82.05985484 119.55049485 63.83984375 129.49609375 C53.64731449 134.50639729 44.15753724 136.80874876 32.8359375 136.796875 C31.45185448 136.80330269 31.45185448 136.80330269 30.03981018 136.80986023 C28.10280167 136.8155656 26.16577176 136.81613204 24.22875977 136.81176758 C21.28169057 136.80859842 18.33561808 136.83214621 15.38867188 136.85742188 C13.496095 136.8596945 11.60351546 136.86039853 9.7109375 136.859375 C8.83988876 136.86858475 7.96884003 136.87779449 7.07139587 136.88728333 C-1.49929729 136.82305985 -7.88094498 134.63259568 -14.16015625 128.49609375 C-19.41379279 121.63717938 -20.45734861 115.60814041 -20.46313477 107.23364258 C-20.4715741 106.32074966 -20.48001343 105.40785675 -20.4887085 104.46730042 C-20.51441113 101.46256975 -20.52660786 98.45793716 -20.5390625 95.453125 C-20.55524243 93.36137621 -20.57242295 91.26963495 -20.59056091 89.17790222 C-20.63618844 83.68001783 -20.67102758 78.18212333 -20.70275879 72.68414307 C-20.75469438 63.87341388 -20.81973192 55.06279504 -20.89097404 46.25220299 C-20.91382399 43.17276875 -20.93008176 40.0933486 -20.94569397 37.01387024 C-20.95909817 35.13269901 -20.97271275 33.25152926 -20.98657227 31.37036133 C-20.98918564 30.511604 -20.99179901 29.65284668 -20.99449158 28.76806641 C-21.02376779 25.43077044 -21.09757332 22.68384253 -22.16015625 19.49609375 C-22.69872558 14.86086589 -22.61193644 11.41703029 -20.53515625 7.18359375 C-14.22406553 0.04209636 -9.2292772 -0.09164742 0 0 Z M-15.16015625 11.49609375 C-15.85717583 14.88527152 -15.72486858 18.3666691 -14.16015625 21.49609375 C-14.05297073 24.38793434 -14.00598238 27.25670586 -14.00244141 30.14916992 C-13.99736069 31.04529999 -13.99227997 31.94143005 -13.98704529 32.86471558 C-13.97632761 34.81540632 -13.96771294 36.76610947 -13.96092606 38.71681786 C-13.94915261 41.80642015 -13.92970225 44.89588168 -13.9078064 47.98542786 C-13.8461486 56.77156879 -13.79219274 65.55769685 -13.75878906 74.34399414 C-13.73781756 79.71509702 -13.70248982 85.0859459 -13.65803146 90.45690346 C-13.64388619 92.50253619 -13.63515236 94.54821388 -13.63197708 96.59389305 C-13.62705625 99.46154621 -13.60386635 102.32852857 -13.57666016 105.19604492 C-13.57966629 106.03735458 -13.58267242 106.87866425 -13.58576965 107.74546814 C-13.49258533 114.37538689 -12.22920246 119.10035603 -7.78515625 124.24609375 C-2.09659425 129.12200403 1.71318151 129.9549654 9.0234375 129.9296875 C10.36137108 129.93755028 10.36137108 129.93755028 11.72633362 129.9455719 C13.61498986 129.9519862 15.50368608 129.95066276 17.39233398 129.94213867 C20.23692234 129.93371347 23.07944236 129.96225899 25.92382812 129.99414062 C45.429907 130.07057008 62.07343696 125.57864016 76.65478516 111.96875 C89.68826063 99.01840176 94.15741009 83.26450548 94.22485352 65.40844727 C94.00313056 52.22372165 89.76558695 41.07562512 81.83984375 30.49609375 C81.37964844 29.85414062 80.91945313 29.2121875 80.4453125 28.55078125 C71.69038159 17.29804585 57.58428458 10.2658186 43.83984375 7.49609375 C39.51282942 7.091636 35.21889745 7.05125213 30.875 7.0625 C29.67926865 7.05725815 28.48353729 7.0520163 27.25157166 7.0466156 C24.74478936 7.04023368 22.23797696 7.04148225 19.73120117 7.05004883 C15.88862676 7.05862436 12.04750858 7.02963655 8.20507812 6.99804688 C5.76171919 6.9964363 3.31835763 6.99700963 0.875 7 C-0.84685768 6.98314903 -0.84685768 6.98314903 -2.60350037 6.96595764 C-4.2015023 6.98002907 -4.2015023 6.98002907 -5.83178711 6.99438477 C-6.7667955 6.99455093 -7.70180389 6.9947171 -8.66514587 6.99488831 C-11.90802 7.64632695 -13.11057631 8.95704921 -15.16015625 11.49609375 Z M142.83984375 11.49609375 C141.84082031 11.99367188 140.84179688 12.49125 139.8125 13.00390625 C124.18252483 21.47917652 114.01703858 33.89858305 107.83984375 50.49609375 C106.75326711 54.49407192 106.18014478 58.37059813 105.83984375 62.49609375 C105.74574219 63.57375 105.65164062 64.65140625 105.5546875 65.76171875 C104.83076781 82.0220688 110.64410415 96.47576061 121.15234375 108.68359375 C132.6935433 120.97497127 147.24741897 129.25243884 164.31518555 129.89868164 C181.9539211 130.16216636 197.72928066 124.03311429 210.65478516 111.96875 C223.46057245 99.24463775 228.16559116 83.75875644 228.22485352 66.22143555 C228.01879373 52.61146536 224.05086257 41.45642 215.83984375 30.49609375 C215.37964844 29.85414062 214.91945313 29.2121875 214.4453125 28.55078125 C205.65275568 17.24968516 191.60099223 10.36009483 177.83984375 7.49609375 C174.0152725 7.08900846 170.24628935 7.01751835 166.40234375 7.05859375 C164.88966919 7.07104126 164.88966919 7.07104126 163.34643555 7.08374023 C155.90380199 7.25268603 149.55911776 8.11142219 142.83984375 11.49609375 Z " fill="#842E03" transform="translate(25.16015625,1.50390625)"/>
<path d="M0 0 C1.64742188 -0.03577148 1.64742188 -0.03577148 3.328125 -0.07226562 C12.55140262 -0.055677 17.39228734 2.44547988 24.00390625 8.61328125 C25.07368027 9.69208359 26.13479842 10.77953192 27.1875 11.875 C27.74977295 12.44895508 28.3120459 13.02291016 28.89135742 13.61425781 C32.96274675 17.79820111 36.84546104 22.11385606 40.625 26.5625 C42.10056486 28.23235632 43.5797965 29.898979 45.0625 31.5625 C45.74183594 32.325625 46.42117188 33.08875 47.12109375 33.875 C47.86552734 34.7103125 47.86552734 34.7103125 48.625 35.5625 C56.95222043 27.29508007 64.72307512 19.01350971 71.18823242 9.19555664 C74.54077364 4.23128533 77.81314822 1.80209077 83.625 0.5625 C102.0637244 -0.86840297 102.0637244 -0.86840297 109.70703125 4.72265625 C115.69132673 10.46319224 118.61984868 17.61751408 118.88569641 25.87435913 C118.90047869 27.50000049 118.90450884 29.12576351 118.8996582 30.75146484 C118.90476913 31.64511246 118.90988007 32.53876007 118.91514587 33.45948792 C118.92898342 36.39754029 118.92808943 39.33535652 118.92578125 42.2734375 C118.92967151 44.32695604 118.93400687 46.38047377 118.93876648 48.43399048 C118.94621625 52.73271292 118.94594651 57.03135322 118.94067383 61.33007812 C118.93488234 66.82315648 118.95180866 72.31589732 118.9750185 77.80891991 C118.98979174 82.04871569 118.99062263 86.28843087 118.98750877 90.52824783 C118.98802023 92.55272718 118.99322473 94.57721126 119.00332069 96.6016655 C119.01573683 99.43957841 119.00886237 102.2768426 118.99731445 105.11474609 C119.00495819 105.94100998 119.01260193 106.76727386 119.02047729 107.61857605 C118.93744346 116.90852988 116.30170562 123.89307721 109.85546875 130.609375 C104.08166515 135.66524505 98.01745865 137.33441079 90.39453125 137.00390625 C82.54247107 135.75244955 77.06589628 131.65316464 72 125.72265625 C68.68729506 120.51832149 68.34509219 115.34061003 68.4296875 109.3203125 C68.4325174 108.55194061 68.43534729 107.78356873 68.43826294 106.99191284 C68.44938689 104.55694479 68.4744764 102.12235538 68.5 99.6875 C68.51003989 98.02865118 68.51916397 96.36979654 68.52734375 94.7109375 C68.54930063 90.66131421 68.58377594 86.61197113 68.625 82.5625 C67.965 82.5625 67.305 82.5625 66.625 82.5625 C66.23441406 83.45582031 66.23441406 83.45582031 65.8359375 84.3671875 C64.54648412 86.70484169 63.28960378 87.98634575 61.25 89.6875 C60.66476562 90.18507813 60.07953125 90.68265625 59.4765625 91.1953125 C54.65978737 94.752003 50.51142286 95.3665998 44.625 94.5625 C40.49227481 92.53830807 37.64936093 89.637189 34.44140625 86.40625 C33.7254126 85.68630859 33.00941895 84.96636719 32.27172852 84.22460938 C31.4565979 83.40186523 31.4565979 83.40186523 30.625 82.5625 C30.62089111 83.60591553 30.61678223 84.64933105 30.61254883 85.72436523 C30.59061051 89.633056 30.53617194 93.54076097 30.47241211 97.44897461 C30.44935921 99.13344807 30.43486649 100.81806307 30.42944336 102.50268555 C30.35645064 121.45271958 30.35645064 121.45271958 22.91625977 129.3840332 C17.48529869 134.64468252 11.59691111 136.6800701 4.125 137 C-3.318695 136.78349364 -9.00106588 133.63788222 -14.375 128.5625 C-19.58529 121.71469029 -20.67213816 115.75238297 -20.67797852 107.40771484 C-20.68641785 106.50618179 -20.69485718 105.60464874 -20.70355225 104.67579651 C-20.72925471 101.7083379 -20.74145245 98.74097863 -20.75390625 95.7734375 C-20.77008757 93.70650451 -20.78726823 91.63957912 -20.80540466 89.57266235 C-20.85103281 84.13927729 -20.88586922 78.70588196 -20.91760254 73.2723999 C-20.96953308 64.56861804 -21.03464325 55.86494802 -21.10581779 47.16130447 C-21.12864115 44.12124879 -21.14491702 41.08120731 -21.16053772 38.04110718 C-21.17394456 36.18023522 -21.18755938 34.31936475 -21.20141602 32.45849609 C-21.20402939 31.61268478 -21.20664276 30.76687347 -21.20933533 29.89543152 C-21.24135614 26.27794468 -21.44032657 23.04748312 -22.375 19.5625 C-22.89081629 14.91169742 -22.83570307 11.50162548 -20.75 7.25 C-14.41991119 0.08700476 -9.2760428 -0.09189553 0 0 Z M-14.03125 9.37109375 C-15.96274055 12.52099549 -15.70418161 14.94150229 -15.375 18.5625 C-15.045 19.5525 -14.715 20.5425 -14.375 21.5625 C-14.27488373 24.51755313 -14.23132811 27.44974311 -14.2331543 30.4050293 C-14.22967987 31.30945267 -14.22620544 32.21387604 -14.22262573 33.14570618 C-14.21526998 35.11165946 -14.20992363 37.07762105 -14.20633507 39.04358482 C-14.19916807 42.15874837 -14.18349867 45.27375454 -14.16499329 48.38887024 C-14.11254176 57.24677342 -14.06456825 66.10459141 -14.04907227 74.96264648 C-14.03897313 80.3803442 -14.00959725 85.79764736 -13.96775246 91.21518898 C-13.95546302 93.27674178 -13.95031743 95.33835036 -13.95255089 97.39993858 C-13.95491208 100.29138423 -13.93267429 103.18170481 -13.9050293 106.07299805 C-13.91163071 106.91849213 -13.91823212 107.76398621 -13.92503357 108.63510132 C-13.82033104 115.33322994 -12.06691764 120.75536409 -7.3671875 125.65625 C-2.52673978 128.87130752 1.32594703 130.46957267 7.19921875 130.0859375 C13.47362712 128.7320394 18.13486391 124.86750685 21.625 119.5625 C22.62324905 116.56775286 22.77824032 114.48904666 22.83032227 111.35668945 C22.85026749 110.29581619 22.87021271 109.23494293 22.89076233 108.141922 C22.90747482 106.99809555 22.92418732 105.8542691 22.94140625 104.67578125 C22.96218735 103.50363571 22.98296844 102.33149017 23.00437927 101.12382507 C23.06983818 97.37427714 23.12874296 93.62465837 23.1875 89.875 C23.23068868 87.33527909 23.27430308 84.79556538 23.31835938 82.25585938 C23.42551586 76.02481478 23.5272892 69.79369949 23.625 63.5625 C25.68847747 65.93665225 27.75060001 68.31197768 29.8125 70.6875 C30.39064453 71.35265625 30.96878906 72.0178125 31.56445312 72.703125 C34.96327638 76.62041282 38.31131905 80.57304154 41.625 84.5625 C43.56292209 86.7080566 44.72665189 87.4555538 47.59375 87.796875 C52.3125761 87.69991282 55.15473379 86.58202012 58.5625 83.3125 C64.38909283 76.85283672 69.80137553 69.79793671 74.625 62.5625 C74.63086624 63.22569244 74.63673248 63.88888489 74.64277649 64.57217407 C74.70677708 71.48312848 74.79121457 78.3936201 74.88745117 85.30419922 C74.92067781 87.8822621 74.94871673 90.46039733 74.97143555 93.03857422 C75.00502207 96.74738354 75.05734244 100.4555312 75.11328125 104.1640625 C75.11967117 105.31427887 75.1260611 106.46449524 75.13264465 107.64956665 C75.25483169 114.32040056 75.62560434 119.31088243 80.34375 124.42578125 C81.22546875 125.14314453 81.22546875 125.14314453 82.125 125.875 C82.7128125 126.36613281 83.300625 126.85726562 83.90625 127.36328125 C88.02698345 130.23842936 92.80869748 130.25610991 97.625 129.5625 C103.6417446 127.01857816 108.17277857 123.0490003 110.70939636 116.95907593 C111.8392166 112.76782977 111.91275894 108.97395581 111.8996582 104.65478516 C111.9073246 103.34138405 111.9073246 103.34138405 111.91514587 102.00144958 C111.92900176 99.1180836 111.92808801 96.23495774 111.92578125 93.3515625 C111.92967057 91.33905957 111.93400572 89.32655745 111.93876648 87.3140564 C111.94622023 83.0993178 111.94594366 78.88466299 111.94067383 74.66992188 C111.93488242 69.28096695 111.95180648 63.89235609 111.9750185 58.50345802 C111.98978355 54.34776825 111.99062373 50.19216079 111.98750877 46.03644943 C111.98802066 44.05021865 111.99323338 42.0639831 112.00332069 40.07777786 C112.01572057 37.29462889 112.00887201 34.51214306 111.99731445 31.72900391 C112.00495819 30.91627518 112.01260193 30.10354645 112.02047729 29.26618958 C111.95871654 22.50385267 110.67463383 16.98001683 106.1875 11.6875 C101.46988556 7.77533193 97.81951837 7.19863673 91.75 7.1875 C90.70779297 7.15076172 90.70779297 7.15076172 89.64453125 7.11328125 C84.46470675 7.0840167 81.57282514 8.26490488 77.625 11.5625 C76.10629771 13.3876842 76.10629771 13.3876842 75 15.4375 C70.62199118 22.40563969 65.06670457 28.41780833 59.625 34.5625 C58.88685059 35.3975708 58.88685059 35.3975708 58.13378906 36.24951172 C50.06960227 45.34019886 50.06960227 45.34019886 47.625 46.5625 C47.36162842 45.97694336 47.09825684 45.39138672 46.8269043 44.78808594 C45.57177217 42.46393714 44.21814046 40.85642262 42.39453125 38.953125 C41.75580078 38.28023437 41.11707031 37.60734375 40.45898438 36.9140625 C39.45834961 35.87378906 39.45834961 35.87378906 38.4375 34.8125 C31.78453069 27.8483968 25.28697599 20.81479408 19.375 13.203125 C13.16321758 7.37957898 7.64644758 6.9319402 -0.5625 7.0625 C-1.54669922 7.04703125 -2.53089844 7.0315625 -3.54492188 7.015625 C-9.12693577 6.99693119 -9.12693577 6.99693119 -14.03125 9.37109375 Z " fill="#842F05" transform="translate(415.375,1.4375)"/>
<path d="M0 0 C0.83877686 -0.00966797 1.67755371 -0.01933594 2.54174805 -0.02929688 C14.82398613 0.05158862 23.18583623 0.49887594 32.67578125 8.97265625 C38.57462803 16.16225273 37.95637767 23.29297604 37.7734375 32.23828125 C37.75990234 33.49447266 37.74636719 34.75066406 37.73242188 36.04492188 C37.69722638 39.13039396 37.64342453 42.21564398 37.5859375 45.30078125 C44.5159375 45.30078125 51.4459375 45.30078125 58.5859375 45.30078125 C58.4209375 41.98015625 58.2559375 38.65953125 58.0859375 35.23828125 C57.95253557 32.20709289 57.82827917 29.175699 57.70605469 26.14404297 C57.63195624 24.39007856 57.55077814 22.63637676 57.45800781 20.88330078 C56.80086623 8.38918574 56.80086623 8.38918574 59.8359375 4.48828125 C65.33314159 0.11550527 69.37356172 -0.05549997 76.2109375 -0.01171875 C77.56300293 -0.00325928 77.56300293 -0.00325928 78.94238281 0.00537109 C88.30680839 0.1765269 95.1405066 1.79014066 102.796875 7.3125 C108.19185099 13.3082266 109.1760603 19.50815727 109.11938477 27.33764648 C109.13230812 28.79537979 109.13230812 28.79537979 109.14549255 30.28256226 C109.16807943 33.47510895 109.16142671 36.66677263 109.15234375 39.859375 C109.15758262 42.09082803 109.16386006 44.32227885 109.17112732 46.5537262 C109.1815182 51.22317957 109.17698881 55.89232794 109.16235352 60.56176758 C109.14516998 66.53146912 109.16866349 72.50020776 109.20384312 78.4698019 C109.22585391 83.07593608 109.2243666 87.68184118 109.2160778 92.28801155 C109.21526027 94.48833332 109.22208556 96.68867224 109.23684883 98.88894463 C109.25436184 101.97139727 109.23969506 105.05213624 109.21704102 108.13452148 C109.23457932 109.48376961 109.23457932 109.48376961 109.25247192 110.86027527 C109.1441329 118.14317546 106.84180288 123.76997759 101.8760004 129.15511227 C96.80409864 133.96783049 91.12441777 136.3846099 84.1484375 136.67578125 C76.74333184 136.36989048 70.54648386 134.1149484 65.08984375 129.05078125 C60.79110168 124.04860866 58.44855049 117.96963751 58.48828125 111.4140625 C58.49077881 110.56884033 58.49327637 109.72361816 58.49584961 108.8527832 C58.50495361 107.78374756 58.51405762 106.71471191 58.5234375 105.61328125 C58.5440625 102.21015625 58.5646875 98.80703125 58.5859375 95.30078125 C51.6559375 95.30078125 44.7259375 95.30078125 37.5859375 95.30078125 C37.74284359 101.80722891 37.74284359 101.80722891 37.94628906 108.31225586 C38.04109335 116.19095054 36.02041406 121.64656695 31.68359375 128.15625 C26.53858037 133.41623575 19.30181067 136.63324613 11.9609375 136.98828125 C4.48150366 136.51339656 -1.83516655 133.42332603 -6.8515625 127.86328125 C-11.74530544 121.80088327 -12.85691427 116.49991476 -12.83056641 108.93066406 C-12.84344444 107.5442849 -12.84344444 107.5442849 -12.85658264 106.12989807 C-12.88159179 103.08782268 -12.88601641 100.04607493 -12.890625 97.00390625 C-12.90493738 94.88733933 -12.92069482 92.77078174 -12.93783569 90.65423584 C-12.97965111 85.091836 -13.00467558 79.52949396 -13.02532959 73.96697998 C-13.06117817 65.04928801 -13.12202724 56.13173841 -13.18381882 47.21419525 C-13.20294734 44.0953729 -13.21464831 40.97658872 -13.22525024 37.85772705 C-13.23545768 35.95625728 -13.2458152 34.05478831 -13.25634766 32.15332031 C-13.25738998 31.28161697 -13.25843231 30.40991364 -13.25950623 29.51179504 C-13.16861916 25.27158815 -13.16861916 25.27158815 -14.4140625 21.30078125 C-14.99643254 16.44278308 -15.54899378 11.45604163 -13.21484375 7.0234375 C-9.49796729 2.59501793 -5.90668381 0.06759521 0 0 Z M-5.98046875 9.07421875 C-7.51255419 11.453752 -7.88436706 12.5147145 -7.7265625 15.30078125 C-7.70207031 15.96078125 -7.67757813 16.62078125 -7.65234375 17.30078125 C-7.46316204 19.29837985 -7.46316204 19.29837985 -6.90779686 21.17757607 C-6.06642113 24.79574295 -6.26090415 28.49934612 -6.25634766 32.19677734 C-6.25126694 33.09480576 -6.24618622 33.99283417 -6.24095154 34.91807556 C-6.23025939 36.86655073 -6.22163469 38.8150381 -6.21483231 40.76353073 C-6.20303091 43.84881734 -6.1835752 46.93396477 -6.16171265 50.01919556 C-6.10013501 58.7907447 -6.0460429 67.56227884 -6.01269531 76.33398438 C-5.99174301 81.700905 -5.95643683 87.06757047 -5.91193771 92.43434525 C-5.89778405 94.47801332 -5.88905671 96.52172651 -5.88588333 98.56544113 C-5.88097112 101.42589757 -5.85780541 104.28567732 -5.83056641 107.14599609 C-5.83357254 107.98775894 -5.83657867 108.82952179 -5.8396759 109.6967926 C-5.76063672 115.28991784 -4.85938442 119.61418756 -0.94921875 123.91015625 C4.24539928 127.93357393 7.64758517 129.79288979 14.2109375 129.609375 C19.01098936 128.98568405 22.87659494 127.16706097 26.16015625 123.58203125 C29.71355505 118.77628846 30.71184197 115.11843343 30.68359375 109.1015625 C30.68109619 108.01270752 30.67859863 106.92385254 30.67602539 105.80200195 C30.66692139 104.41972412 30.65781738 103.03744629 30.6484375 101.61328125 C30.6278125 97.22015625 30.6071875 92.82703125 30.5859375 88.30078125 C42.1359375 88.30078125 53.6859375 88.30078125 65.5859375 88.30078125 C65.2734375 101.80078125 65.2734375 101.80078125 65.13549805 106.00976562 C65.0524988 113.43364646 65.47390046 118.67932302 70.5859375 124.30078125 C74.311742 128.00344411 78.36375078 129.62095315 83.5859375 129.92578125 C90.24920326 129.56699002 94.58816899 126.45222426 99.0234375 121.67578125 C101.12369631 118.48338787 101.71067118 115.99886365 101.73310852 112.25993347 C101.74026382 111.43989334 101.74741913 110.61985321 101.75479126 109.77496338 C101.75748016 108.8788031 101.76016907 107.98264282 101.76293945 107.05932617 C101.76951065 106.11267593 101.77608185 105.1660257 101.78285217 104.19068909 C101.80258226 101.0542086 101.81424656 97.91777597 101.82421875 94.78125 C101.82829428 93.71029902 101.8323698 92.63934803 101.83656883 91.53594398 C101.85742736 85.8686098 101.87173059 80.20129982 101.88110352 74.53393555 C101.8921733 68.67944345 101.92658065 62.82533087 101.96627522 56.97097301 C101.99241308 52.4696634 102.0007928 47.96844465 102.00438499 43.46706581 C102.00925749 41.30890652 102.02089027 39.15075146 102.03942299 36.99266624 C102.06375588 33.97161079 102.06286 30.95154326 102.0559082 27.93041992 C102.06871826 27.04033234 102.08152832 26.15024475 102.09472656 25.23318481 C102.04883244 19.75734061 101.21888914 16.65640953 97.5859375 12.30078125 C91.74501849 7.0682913 84.6788839 6.81730005 77.2109375 6.73828125 C75.89029297 6.71628662 75.89029297 6.71628662 74.54296875 6.69384766 C70.5854842 6.75691817 68.29907353 6.80018349 65.00390625 9.11328125 C62.96909835 12.25237884 63.25312022 14.63979118 63.5859375 18.30078125 C64.0809375 19.78578125 64.0809375 19.78578125 64.5859375 21.30078125 C64.73772764 23.65632605 64.83493039 26.01553248 64.90234375 28.375 C64.94045166 29.62627686 64.97855957 30.87755371 65.01782227 32.16674805 C65.08247681 34.55340698 65.08247681 34.55340698 65.1484375 36.98828125 C65.365 44.56796875 65.365 44.56796875 65.5859375 52.30078125 C54.0359375 52.30078125 42.4859375 52.30078125 30.5859375 52.30078125 C30.8359375 36.17578125 30.8359375 36.17578125 30.94628906 31.12060547 C30.95798337 29.78223961 30.96817344 28.44385941 30.9765625 27.10546875 C31.0072583 26.08271851 31.0072583 26.08271851 31.03857422 25.03930664 C31.04222755 19.98127338 29.71815929 17.21281825 26.5859375 13.30078125 C20.43669306 7.47518125 14.05334334 6.93823111 5.9609375 6.92578125 C5.1153125 6.90128906 4.2696875 6.87679688 3.3984375 6.8515625 C-1.60727937 6.82317595 -1.60727937 6.82317595 -5.98046875 9.07421875 Z " fill="#842D02" transform="translate(278.4140625,1.69921875)"/>
<path d="M0 0 C6.95012998 3.76798235 12.32340114 9.39487462 14.62794113 17.06555653 C15.35084494 20.65247862 15.1953498 24.30800493 15.20019531 27.95385742 C15.20764267 29.29367172 15.20764267 29.29367172 15.21524048 30.66055298 C15.22984151 33.61485568 15.23666151 36.56910464 15.2421875 39.5234375 C15.24794167 41.58124289 15.25369937 43.63904827 15.25946045 45.69685364 C15.26996529 50.01348113 15.27581101 54.33009004 15.27929688 58.64672852 C15.2847734 64.16341152 15.30878571 69.6798467 15.33726883 75.19645214 C15.35594512 79.44910893 15.36110352 83.70170669 15.36263275 87.95440102 C15.36564971 89.98726058 15.37364576 92.02011934 15.38681793 94.05293846 C15.40397902 96.90551651 15.40197343 99.75749791 15.39550781 102.61010742 C15.40932999 103.85657295 15.40932999 103.85657295 15.4234314 105.1282196 C15.35774157 114.4359808 12.72837599 121.42290988 6.26953125 128.15234375 C0.49572765 133.2082138 -5.56847885 134.87737954 -13.19140625 134.546875 C-20.98360278 133.30495933 -26.46625314 129.26138797 -31.48828125 123.36328125 C-35.80788093 116.74065893 -36.42160204 111.24761861 -36.47265625 103.49194336 C-36.49087936 102.44717331 -36.50910248 101.40240326 -36.52787781 100.32597351 C-36.58337227 96.88661084 -36.6170631 93.44747411 -36.6484375 90.0078125 C-36.67799714 87.61079738 -36.70811604 85.2137891 -36.73876953 82.81678772 C-36.79910664 77.79937602 -36.84776921 72.78200645 -36.88916016 67.7644043 C-36.94382457 61.33568644 -37.03501303 54.9080634 -37.13587952 48.47992611 C-37.20820278 43.53267996 -37.25737919 38.58540274 -37.29995728 33.63781929 C-37.32386355 31.26746747 -37.35585247 28.89718281 -37.39608765 26.52705193 C-37.44960602 23.21426962 -37.47101918 19.90275427 -37.484375 16.58959961 C-37.50698898 15.61228882 -37.52960297 14.63497803 -37.55290222 13.62805176 C-37.53913023 9.15905379 -37.43608534 6.08836969 -34.55551147 2.53497314 C-26.56524822 -4.94694099 -9.81060116 -3.69197535 0 0 Z M-29.9609375 8.10546875 C-30.39454829 10.13975128 -30.39454829 10.13975128 -30.30392456 12.4120636 C-30.30396988 13.29100281 -30.3040152 14.16994202 -30.30406189 15.07551575 C-30.28863846 16.0371312 -30.27321503 16.99874664 -30.25732422 17.98950195 C-30.25282761 19.00442719 -30.24833099 20.01935242 -30.24369812 21.06503296 C-30.22457982 24.42907664 -30.18326377 27.79242807 -30.140625 31.15625 C-30.12020447 33.49170679 -30.10069556 35.82717171 -30.08206177 38.16264343 C-30.03947539 43.06293088 -29.98595486 47.96294717 -29.92480469 52.86303711 C-29.84730987 59.14103124 -29.79651539 65.4189006 -29.7539196 71.69721699 C-29.71826989 76.52291361 -29.66854387 81.34838678 -29.6145668 86.17391014 C-29.59034727 88.48830258 -29.57047092 90.80274471 -29.55501938 93.1172123 C-29.53125176 96.35624413 -29.48857166 99.59449513 -29.44091797 102.83325195 C-29.43763992 103.78879471 -29.43436188 104.74433746 -29.4309845 105.72883606 C-29.30444193 112.38381977 -28.08893077 116.63239549 -23.6484375 121.79296875 C-18.79904132 125.965705 -14.64056792 127.749056 -8.26953125 127.5234375 C-3.00022649 126.56943478 0.76164361 123.41650393 4.4140625 119.66796875 C8.0057332 114.00418033 8.33681736 108.71416826 8.32958984 102.21362305 C8.33630707 101.3396286 8.34302429 100.46563416 8.34994507 99.56515503 C8.36888423 96.68660741 8.37284727 93.80829348 8.375 90.9296875 C8.38143097 88.91958014 8.38815956 86.9094737 8.39517212 84.89936829 C8.40713484 80.68883088 8.410854 76.47837546 8.40966797 72.26782227 C8.40946489 66.88784953 8.43676038 61.50840567 8.47121239 56.12855816 C8.49351388 51.97711297 8.4975045 47.82579438 8.49644852 43.67429543 C8.49879983 41.69167064 8.50759674 39.70904213 8.52311325 37.72647667 C8.54283815 34.94578005 8.53690975 32.16621517 8.52490234 29.38549805 C8.54176086 28.17179787 8.54176086 28.17179787 8.55895996 26.93357849 C8.49427568 21.00110608 7.00986552 16.25529519 4.0390625 11.10546875 C2.14241891 9.12232558 2.14241891 9.12232558 -0.0234375 8.10546875 C-0.69503906 7.73421875 -1.36664062 7.36296875 -2.05859375 6.98046875 C-7.03388699 4.69203818 -11.58638088 4.88574794 -16.9609375 4.85546875 C-17.87617187 4.83484375 -18.79140625 4.81421875 -19.734375 4.79296875 C-21.05308594 4.78523437 -21.05308594 4.78523437 -22.3984375 4.77734375 C-23.60306641 4.7633252 -23.60306641 4.7633252 -24.83203125 4.74902344 C-27.53823988 5.20212718 -28.26885283 5.97645788 -29.9609375 8.10546875 Z " fill="#843108" transform="translate(577.9609375,3.89453125)"/>
<path d="M0 0 C20.33628319 0 20.33628319 0 27.05859375 5.765625 C33.67176784 12.75001676 35.60811173 19.50300058 35.35546875 29.03125 C34.54757865 35.77846399 31.48047196 40.98442711 27 46 C18.01812061 52.50022982 11.57370058 52 0 52 C0 34.84 0 17.68 0 0 Z " fill="#852D02" transform="translate(48,43)"/>
<path d="M0 0 C4.40381343 3.07242798 7.56868661 6.89672607 9.6875 11.875 C10.72493962 18.29264977 9.38969741 23.57412643 5.6875 28.875 C1.34623081 33.1049546 -2.73686644 34.94783248 -8.75 35.25 C-14.24775852 35.08615951 -17.07863927 33.0112898 -21.01171875 29.25 C-25.33571376 24.41196363 -26.18480443 20.20147972 -25.828125 13.78125 C-24.89647496 8.53013159 -22.72331187 5.02882177 -18.7734375 1.5 C-13.05162768 -2.40493182 -6.36620862 -2.16210859 0 0 Z " fill="#F4F3F2" transform="translate(200.3125,53.125)"/>
<path d="M0 0 C6.82115532 3.93102295 11.28740562 9.35385208 13.5625 16.9375 C14.9429755 25.73628831 12.5713016 32.66837056 7.5625 39.9375 C2.04432798 45.59800582 -3.91626106 47.95067247 -11.75 48.375 C-18.52953702 48.22761876 -23.31489648 45.87561709 -28.22265625 41.2578125 C-34.38210822 34.44760762 -36.01137557 28.46638212 -35.78125 19.34765625 C-34.96197651 11.2200908 -30.56494598 6.06178004 -24.4375 0.9375 C-17.5438705 -4.1506551 -7.5240584 -3.44900105 0 0 Z M-26.9375 13 C-29.3778445 18.0345846 -29.38846946 23.51265152 -28.4375 28.9375 C-25.91324025 34.27129543 -21.77091926 38.42765564 -16.4375 40.9375 C-10.86142097 41.93434094 -6.15353062 41.03266182 -1.23046875 38.28125 C2.69804335 35.33700564 5.02797875 31.54106375 6.5625 26.9375 C7.40318326 20.84855126 6.53552706 16.69747757 2.99609375 11.6640625 C-0.28205845 7.71598819 -3.47759548 5.30551655 -8.63671875 4.6640625 C-16.91576814 4.32614212 -21.70276439 6.58744888 -26.9375 13 Z " fill="#842D03" transform="translate(203.4375,47.0625)"/>
<path d="M0 0 C6.8183693 0 9.61810055 0.40034176 15 4 C19.45503869 8.45503869 21.05498427 13.16669478 21.375 19.375 C21.23481111 24.27336461 19.94479487 28.07075336 17 32 C11.48901491 37.04756134 7.69082511 38 0 38 C0 25.46 0 12.92 0 0 Z " fill="#F2EFEE" transform="translate(55,50)"/>
</svg>
